<svg version="1.0" xmlns="http://www.w3.org/2000/svg" width="1068" height="1068" viewBox="0 0 801 801"><path d="M135.2 383.7l.3 158.7 3.7.1c2 .1 4.1-.1 4.6-.4.5-.3.8-68.8.8-158.9l-.1-158.2H135l.2 158.7zm65.7-158.5c-.4.8-.5 315.4-.1 316.4.3.9 4.5 1.2 8.4.5.4 0 .6-71.3.5-158.4l-.2-158.2-4.2-.3c-2.4-.2-4.4-.2-4.4 0zm65 2c-.1 2.9-.1 311.8 0 313.8.1 1.1 1.3 1.5 4.6 1.6h4.5V225h-4.5c-4 0-4.5.3-4.6 2.2zm65.4 156.5l.2 158.7 3.5.2c1.9 0 4-.3 4.5-.7.7-.5.9-54 .8-157.6-.1-86.2-.2-157.4-.2-158.1-.1-.8-1.7-1.2-4.6-1.2H331l.3 158.7zm65.4-158c-.3.7-.2 314.8.2 316.4.1.5 5.9.5 8.1 0 .3 0 .5-71.4.5-158.6V225h-4.2c-2.3 0-4.4.3-4.6.7zm65.2 1c-.5 11.8 0 314.5.5 315 .4.5 2.5.8 4.7.9l3.9.1V225h-4.5c-3.6 0-4.5.4-4.6 1.7zM527 383.8v158.9h4.5c3.9 0 4.5-.3 4.6-2.1 0-1.2.1-72.5.2-158.6V225.5l-4.6-.3-4.7-.3v158.9zm65.3-.1l.2 158.8 4.2.1c2.3 0 4.4-.4 4.6-1 .3-1 .1-314-.2-315.9 0-.4-2.1-.7-4.5-.7h-4.4l.1 158.7zm65.4-158c-.2.5-.3 71.9-.3 158.8l.1 157.9 3.5.1c1.9.1 4.1 0 4.8-.3.9-.3 1.2-33 1.2-158.8V225h-4.4c-2.5 0-4.7.3-4.9.7z"/></svg>