<?xml version="1.0" encoding="UTF-8"?><svg id="Capa_2" xmlns="http://www.w3.org/2000/svg" viewBox="0 0 348.01 124"><defs><style>.cls-1{fill:#b2b2b2;}</style></defs><g id="Capa_1-2"><g><g><path d="m53.6,57H2.2c-1.2,0-2.2-1-2.2-2.2V3.4C0,2.2,1,1.2,2.2,1.2h51.4c1.5,0,2.6,1.5,2.1,2.9l-8.2,24.3c-.2.5-.2.9,0,1.4l8.2,24.3c.5,1.4-.5,2.9-2.1,2.9"/><path d="m53.6,120.6H2.2c-1.2,0-2.2-1-2.2-2.2v-51.4c0-1.2,1-2.2,2.2-2.2h51.4c1.5,0,2.6,1.5,2.1,2.9l-8.2,24.3c-.2.5-.2.9,0,1.4l8.2,24.3c.5,1.4-.5,2.9-2.1,2.9"/><path d="m119.4,3.4v51.4c0,1.2-1,2.2-2.2,2.2h-51.4c-1.2,0-2.2-1-2.2-2.2V3.4c0-1.5,1.5-2.6,2.9-2.1l24.3,8.2c.5.2.9.2,1.4,0L116.5,1.3c1.4-.5,2.9.6,2.9,2.1"/></g><path d="m159.5,96.3h7.2v-2.4h-7.2v2.4Zm3.6-7.2h.1l3.1,10h3.5l-4.5-13.3h-4.3l-4.5,13.3h3.5l3.1-10Zm-11.2-3.4v7.7h-.1l-5.2-7.7h-2.8v13.3h3.2v-7.6h.1l5.3,7.7h2.7v-13.3h-3.2v-.1Zm-10.1,13.3v-2.6h-6.1v-2.7h5.6v-2.6h-5.6v-2.7h6.1v-2.6h-9.3v13.3h9.3v-.1Zm-11,0v-2.6h-5.5v-10.7h-3.2v13.3h8.7Zm-10.7,0v-2.6h-6.1v-2.7h5.6v-2.6h-5.6v-2.7h6.1v-2.6h-9.3v13.3h9.3v-.1Zm-23.2-13.3l4,6.7-4.1,6.7h3.7l2.5-4.2h.1l2.5,4.2h3.7l-4.2-6.7,4-6.7h-3.6l-2.5,4.2h-.1l-2.4-4.2h-3.6Zm-7.7,2.7v10.7h3.2v-10.7h4v-2.6h-11.2v2.6h4Zm-8.8,10.6h3.2v-13.3h-3.2v13.3Zm-16.9,0h3.1v-8.2h.1l3.2,8.1h2l3.2-8.1h.1v8.2h3.1v-13.3h-4l-3.4,8.2h-.2l-3.4-8.2h-4v13.3h.2Z"/><g><path d="m120.8,73.6c-.2.6-.6,1-1.1,1.4-.5.3-1,.5-1.6.5s-1.2-.2-1.6-.5c-.5-.3-.8-.8-1.1-1.4-.2-.6-.4-1.3-.4-2.2s.1-1.6.4-2.2c.2-.6.6-1.1,1.1-1.4s1-.5,1.6-.5,1.2.2,1.6.5c.5.3.8.8,1.1,1.4.2.6.4,1.3.4,2.2s-.1,1.6-.4,2.2m2.8-5.9c-.6-1-1.3-1.8-2.3-2.3s-2-.8-3.2-.8-2.3.3-3.2.8c-1,.5-1.7,1.3-2.3,2.3-.6,1-.8,2.3-.8,3.7,0,1.5.3,2.7.8,3.7.6,1,1.3,1.8,2.3,2.3s2,.8,3.2.8,2.3-.3,3.2-.8c1-.5,1.7-1.3,2.3-2.3.6-1,.8-2.3.8-3.7.1-1.5-.2-2.7-.8-3.7m-21.2-.2h1.5c.8,0,1.4.1,1.9.4s.9.7,1.2,1.2c.3.6.4,1.3.4,2.3s-.1,1.7-.4,2.3c-.3.6-.7,1-1.2,1.2-.5.3-1.1.4-1.9.4h-1.6v-7.8h.1Zm5.2,9.7c1-.5,1.7-1.3,2.3-2.3.5-1,.8-2.2.8-3.6s-.3-2.6-.8-3.6-1.3-1.8-2.3-2.3-2.1-.8-3.5-.8h-4.9v13.3h4.9c1.4.1,2.5-.1,3.5-.7m-9.8.8v-2.6h-5.5v-10.7h-3.2v13.3h8.7Zm-14.4-4.4c-.2.6-.6,1-1.1,1.4-.5.3-1,.5-1.6.5s-1.2-.2-1.6-.5c-.5-.3-.8-.8-1.1-1.4-.2-.6-.4-1.3-.4-2.2s.1-1.6.4-2.2c.2-.6.6-1.1,1.1-1.4s1-.5,1.6-.5,1.2.2,1.6.5c.5.3.8.8,1.1,1.4.2.6.4,1.3.4,2.2s-.1,1.6-.4,2.2m2.8-5.9c-.6-1-1.3-1.8-2.3-2.3s-2-.8-3.2-.8-2.3.3-3.2.8c-1,.5-1.7,1.3-2.3,2.3-.6,1-.8,2.3-.8,3.7,0,1.5.3,2.7.8,3.7.6,1,1.3,1.8,2.3,2.3s2,.8,3.2.8,2.3-.3,3.2-.8c1-.5,1.7-1.3,2.3-2.3.6-1,.8-2.3.8-3.7.1-1.5-.2-2.7-.8-3.7m-19.5,10.3v-3.6l1.3-1.6,3.3,5.2h3.8l-4.8-7.4,4.7-5.9h-3.8l-4.4,5.6h-.2v-5.6h-3.2v13.3h3.3Z"/><path d="m180.1,116.6h7.2v-1.5h-7.2v1.5Zm3.5-7.8h.1l4.2,11.8h1.8l-5.1-14h-1.8l-5.1,14h1.8l4.1-11.8Zm-7.7,11.8v-1.5h-6.9v-4.8h6.3v-1.5h-6.3v-4.7h6.8v-1.5h-8.5v14h8.6Zm-13.6-14.1v11h-.2l-7.7-11h-1.6v14h1.7v-11h.1l7.6,11h1.6v-14h-1.5Zm-14.6,9.2c0,.7-.1,1.3-.4,1.8s-.7.9-1.3,1.3c-.6.3-1.2.5-2,.5s-1.5-.2-2-.5c-.6-.3-1-.7-1.3-1.3-.3-.5-.5-1.1-.5-1.8v-9.1h-1.7v9.3c0,1,.2,1.8.7,2.6.4.8,1.1,1.3,1.9,1.8.8.4,1.8.6,2.9.6s2.1-.2,2.9-.6,1.4-1,1.9-1.8c.4-.8.7-1.6.7-2.6v-9.3h-1.7v9.1h-.1Zm-16.8-1.4l3.4,6.3h2l-3.5-6.3h-1.9Zm-3,6.3v-12.5h3c.8,0,1.4.1,1.8.3.5.2.8.6,1,1s.3.9.3,1.5-.1,1-.3,1.4c-.2.4-.5.7-1,.9-.5.2-1.1.3-1.8.3h-3.8v1.5h3.8c1.1,0,2-.2,2.7-.5.7-.4,1.2-.9,1.6-1.5.3-.6.5-1.4.5-2.2s-.2-1.6-.5-2.2-.9-1.2-1.6-1.5c-.7-.4-1.6-.6-2.7-.6h-4.7v14h1.7v.1Zm-6.8-4.9c0,.7-.1,1.3-.4,1.8s-.7.9-1.3,1.3c-.6.3-1.2.5-2,.5s-1.5-.2-2-.5c-.6-.3-1-.7-1.3-1.3-.3-.5-.5-1.1-.5-1.8v-9.1h-1.7v9.3c0,1,.2,1.8.7,2.6.4.8,1.1,1.3,1.9,1.8.8.4,1.8.6,2.9.6s2.1-.2,2.9-.6,1.5-1,1.9-1.8c.5-.8.7-1.6.7-2.6v-9.3h-1.8v9.1Zm-18-7.7v12.5h1.7v-12.5h4.4v-1.5h-10.5v1.5h4.4Zm-4.4,12.6v-1.5h-6.5v-12.5h-1.7v14h8.2Zm-13.3-4.9c0,.7-.1,1.3-.4,1.8s-.7.9-1.3,1.3c-.6.3-1.2.5-2,.5s-1.5-.2-2-.5c-.6-.3-1-.7-1.3-1.3-.3-.5-.5-1.1-.5-1.8v-9.1h-1.7v9.3c0,1,.2,1.8.7,2.6.4.8,1.1,1.3,1.9,1.8.8.4,1.8.6,2.9.6s2.1-.2,2.9-.6,1.5-1,1.9-1.8c.5-.8.7-1.6.7-2.6v-9.3h-1.7v9.1h-.1Zm-20,4.9v-4.5l1.8-2,4.9,6.5h2.1l-5.9-7.7,5.9-6.3h-2.2l-6.3,7h-.2v-7h-1.7v14h1.6Z"/><path class="cls-1" d="m291.6,69.8c4.7-.3,5.7-2.2,8.8-3v-9.4c-3.4-.8-7.2-3-8.8-7.8-1.6,5.1-5.5,7.3-9,7.9v9.2c3.3.8,4.2,2.8,9,3.1m22.9,0c4.9-.3,5.8-2.4,9.3-3.1v-9.3c-3.4-.8-7.2-3-8.8-7.8-1.6,5-5.5,7.2-9,7.9v9.2c3,.8,3.7,2.8,8.5,3.1m14.8-12.3v9.3c2.8.8,3.9,2.5,8,2.9v5.5c-5.4-.5-5.6-3.3-11.1-3.3s-5.7,3-11.6,3.4c-5.9-.3-5.5-3.4-11.3-3.4s-5.7,3-11.6,3.4c-5.9-.3-5.9-3.4-11.6-3.4s-5.7,2.9-11.6,3.3v-5.5c4.6-.3,5.7-2.2,8.7-3v-9.3c-5-1.1-10.6-5.1-9.5-15.3,0-9.2,6.6-24.3,12.4-23.6,4.6-.6,9.9,9.7,11.6,18.5,1.6-8.8,6.9-19.1,11.6-18.5,4.5-.6,9.9,9.5,11.7,18.2,1.8-8.7,7.2-18.8,11.7-18.2,5.5-.7,12.2,14.5,12.2,23.6,1.2,10.6-4.7,14.5-9.6,15.4m-60.6,23.3c5.5-.5,5.7-3.3,11.2-3.3s5.7,3,11.6,3.4c5.9-.4,5.9-3.4,11.6-3.4s5.4,3,11.3,3.4c5.9-.4,5.9-3.4,11.6-3.4,5.4,0,5.7,2.7,10.8,3.3-.3,1.8-.7,3.5-1.3,5.2-3.8-.9-4.5-3-9.5-3-5.7,0-5.7,2.8-11.6,3.3-5.9-.5-5.5-3.3-11.3-3.3s-5.7,2.8-11.6,3.3c-5.9-.5-5.9-3.3-11.6-3.3-5,0-5.6,2.2-9.9,3.1-.5-1.7-1-3.5-1.3-5.3m3.6,10.2c2.5-1,3.7-2.4,7.7-2.4,5.7,0,5.7,2.8,11.6,3.4,5.9-.5,5.9-3.4,11.6-3.4s5.4,2.8,11.3,3.4c5.9-.5,5.9-3.4,11.6-3.4,3.8,0,5.1,1.3,7.3,2.3-.8,1.4-1.7,2.8-2.6,4.1-1.1-.5-2.5-.9-4.6-.9-5.7,0-5.7,2.8-11.6,3.4-5.9-.5-5.5-3.4-11.3-3.4s-5.7,2.8-11.6,3.4c-5.9-.5-5.9-3.4-11.6-3.4-2.4,0-3.7.5-5,1.1-1.1-1.4-2-2.7-2.8-4.2M348,5.6h-89.6l-.1,72.6c-.6,22.6,22.5,40.8,44.9,40.3,22.4.6,45.3-17.6,44.8-40.1V5.6Z"/></g><rect x="222.9" width="1.2" height="124"/></g></g></svg>