<svg width="66" height="24" viewBox="0 0 66 24" fill="none" xmlns="http://www.w3.org/2000/svg">
<path d="M9.59661 13.2506C9.91876 13.1064 10.0374 12.8606 9.92723 12.5724C9.68138 11.8941 8.30802 11.1227 7.66372 11.3007C7.04486 11.4703 5.34087 12.123 3.82338 12.708C2.62805 13.1743 1.50053 13.6066 1.1699 13.6999L1.10208 13.7168V13.7338C0.915578 13.8101 0.746026 13.9033 0.584952 14.0475C0.237372 14.3526 0.0254327 14.7765 0 15.2428C0 15.2852 0 15.3191 0 15.3615C0 15.7854 0.152596 16.1838 0.432356 16.5059C0.737549 16.8535 1.16143 17.0655 1.62769 17.0994C1.90745 17.1163 2.18721 17.057 2.43306 16.9468L2.49241 16.9298C3.12822 16.6162 4.09467 16.099 5.11197 15.5649C6.69728 14.7257 8.48605 13.7677 9.59661 13.259" fill="#1D1D1B"/>
<path d="M13.9286 13.6234C13.793 13.3775 13.5556 13.3097 13.2759 13.4369C11.343 14.3016 9.45248 15.4206 7.61285 16.5058C6.1971 17.345 4.85764 18.1335 3.64535 18.7184L3.58601 18.7438C3.10279 19.0151 2.72977 19.4814 2.62804 20.0748C2.54327 20.5665 2.66195 21.0582 2.95019 21.4651C3.23843 21.8721 3.66231 22.1433 4.154 22.2196C4.62027 22.2959 5.08654 22.1942 5.48498 21.9314L5.53585 21.906C6.29883 21.4143 8.39279 19.9985 10.2324 18.7608L13.3183 16.6753C13.9117 16.2769 14.3017 14.3101 13.9202 13.6234" fill="#1D1D1B"/>
<path d="M9.30837 6.18873C10.1561 6.18873 10.8343 5.519 10.8343 4.70516C10.8343 3.89131 10.1477 3.2131 9.30837 3.2131C8.46909 3.2131 7.78241 3.88283 7.78241 4.70516C7.78241 5.52748 8.46909 6.18873 9.30837 6.18873Z" fill="#1D1D1B"/>
<path d="M21.923 12.8265C21.7789 9.62199 20.2444 6.68875 17.3451 4.11157C17.3281 4.09461 15.8446 2.90775 15.1325 2.19564C15.0053 2.06847 14.9544 1.91588 14.9544 1.74632C14.9544 1.37331 15.2003 0.949434 15.3783 0.627286L15.5224 0.347526C15.5479 0.296661 15.5563 0.254273 15.5563 0.211885C15.5563 0.161019 15.5394 0.127109 15.5309 0.101676C15.4885 0.0338557 15.4122 0.00842285 15.3614 0.00842285H15.3274C14.6492 0.177974 11.1819 1.05964 10.97 1.1529C10.7665 1.23767 10.5376 1.50048 10.5207 1.80567C10.5122 2.01761 10.5885 2.30584 11.0378 2.56017C11.3769 2.7382 19.0406 6.90916 19.4052 12.445C19.5917 15.2596 17.8622 17.9893 14.2847 20.5496H14.2762L14.2593 20.575C13.9456 20.8632 13.7845 21.2871 13.793 21.7619C13.81 22.4062 14.1321 23.0505 14.6492 23.4828C15.5733 24.2543 17.0823 24.0932 17.8792 23.1352C17.8792 23.1352 17.9131 23.0928 17.9385 23.0589C18.4726 22.457 21.9484 18.3539 21.9484 13.3013C21.9484 13.1402 21.9484 12.9876 21.9399 12.8265" fill="#1D1D1B"/>
<path d="M30.8414 12.564C27.4504 12.564 25.0343 14.9292 25.0343 18.2863C25.0343 21.6434 27.5436 23.9833 31.4094 23.9833C32.2741 23.9833 34.3511 23.9833 36.3264 22.5336V20.3549C34.6987 21.5332 33.6305 21.9402 32.2402 21.9402C30.0699 21.9402 28.7305 20.7872 28.6118 18.8119H36.5214C36.6909 14.8105 34.0374 12.564 30.8414 12.564ZM28.6881 16.9977C28.8322 15.4802 29.7139 14.6071 31.0788 14.6071C32.4436 14.6071 33.3253 15.5057 33.4694 16.9977H28.6966H28.6881Z" fill="#1D1D1B"/>
<path d="M40.1752 6.95151C39.0901 6.95151 38.2084 7.83317 38.2084 8.9183C38.2084 10.0034 39.0901 10.8851 40.1752 10.8851C41.2603 10.8851 42.142 10.0034 42.142 8.9183C42.142 7.83317 41.2603 6.95151 40.1752 6.95151Z" fill="#1D1D1B"/>
<path d="M48.2882 9.07953H47.8474L43.1508 14.3187V14.9969H44.7531V19.8037C44.7531 22.9319 46.7708 24.0001 49.1106 24.0001C50.2042 24.0001 51.1282 23.8051 52.366 23.2964V20.7447C51.4165 21.2279 50.7383 21.3974 50.0092 21.3974C48.9156 21.3974 48.2882 20.6938 48.2882 19.6002V14.9969H52.366V12.6062H48.2882V9.08801V9.07953Z" fill="#1D1D1B"/>
<path d="M59.9279 12.674C58.9106 12.674 58.2494 12.852 57.2406 13.4285V9.02017C57.2406 8.0622 56.4691 7.29074 55.5111 7.29074C54.5532 7.29074 53.7817 8.0622 53.7817 9.02017V22.2621C53.7817 23.2201 54.5532 23.9916 55.5111 23.9916C56.2317 23.9916 56.8506 23.5422 57.1049 22.9149V22.9403C58.0544 23.627 59.0717 23.9831 60.1568 23.9831C63.1409 23.9831 65.2434 21.6433 65.2434 18.3031C65.2434 14.9629 63.0646 12.6825 59.9195 12.6825M59.1395 21.6941C58.4952 21.6941 57.9103 21.4313 57.2321 20.8718V15.6496C57.9611 15.1579 58.4698 14.9799 59.0887 14.9799C60.5129 14.9799 61.7676 15.9463 61.7676 18.2522C61.7676 20.5581 60.7503 21.6941 59.1395 21.6941Z" fill="#1D1D1B"/>
<path d="M40.1074 12.6738C39.1664 12.6738 38.4119 13.4368 38.4119 14.3693V22.2959C38.4119 23.2284 39.1664 23.9914 40.1074 23.9914C41.0484 23.9914 41.8029 23.2284 41.8029 22.2959V14.3693C41.8029 13.4368 41.0399 12.6738 40.1074 12.6738Z" fill="#1D1D1B"/>
<path d="M9.59661 13.2419C9.91876 13.0978 10.0374 12.852 9.92723 12.5637C9.68138 11.8855 8.30802 11.1141 7.66372 11.2921C7.04486 11.4616 5.33239 12.1229 3.82338 12.7078C2.62805 13.1656 1.50053 13.6065 1.1699 13.6997L1.10208 13.7167V13.7336C0.915578 13.8099 0.746026 13.9032 0.584952 14.0473C0.237372 14.3525 0.0254327 14.7764 0 15.2426C0 15.2765 0 15.3189 0 15.3613C0 15.7852 0.152596 16.1836 0.432356 16.5058C0.737549 16.8534 1.1699 17.0653 1.62769 17.0992C1.90745 17.1162 2.18721 17.0653 2.44154 16.9551L2.50088 16.9381C3.1367 16.6245 4.09467 16.1073 5.12045 15.5648C6.70576 14.7255 8.49452 13.7675 9.60509 13.2589" fill="#1D1D1B"/>
<path d="M13.9286 13.615C13.793 13.3691 13.5556 13.3013 13.2759 13.4285C11.3515 14.2932 9.45249 15.4122 7.62133 16.4973C6.22253 17.3197 4.90851 18.0996 3.70469 18.6846C3.70469 18.6846 3.70469 18.6846 3.69622 18.6846C3.67926 18.6846 3.66231 18.7015 3.64535 18.71L3.58601 18.7354C3.09431 19.0067 2.72977 19.473 2.62804 20.0664C2.54327 20.5581 2.66195 21.0498 2.95019 21.4567C3.23843 21.8636 3.67078 22.1349 4.154 22.2112C4.62027 22.2875 5.08654 22.1858 5.48498 21.923L5.53585 21.8976C6.29883 21.4059 8.38431 19.9986 10.2239 18.7524L13.3098 16.6754C13.9032 16.2769 14.2932 14.3101 13.9117 13.6234" fill="#1D1D1B"/>
<path d="M9.30837 6.18006C10.1477 6.18006 10.8343 5.51034 10.8343 4.69649C10.8343 3.88264 10.1477 3.20444 9.30837 3.20444C8.46909 3.20444 7.77393 3.87417 7.77393 4.69649C7.77393 5.51881 8.46062 6.18006 9.30837 6.18006Z" fill="#1D1D1B"/>
<path d="M17.3451 4.10314C17.3451 4.10314 15.8446 2.89933 15.1325 2.18721C15.0053 2.06005 14.9544 1.89898 14.9544 1.7379C14.9544 1.36489 15.1918 0.94101 15.3783 0.618863L15.5224 0.339103C15.5479 0.288237 15.5563 0.245849 15.5563 0.203461C15.5563 0.152596 15.5394 0.118686 15.5224 0.0932534C15.48 0.0254328 15.4037 0 15.3529 0H15.319C14.6408 0.169551 11.165 1.05122 10.953 1.14447C10.7496 1.22925 10.5207 1.49205 10.5037 1.79725C10.4867 2.00918 10.5715 2.3059 11.0208 2.55175C11.3599 2.72978 19.0321 6.90074 19.3882 12.4366C19.5747 15.2596 17.8453 17.9809 14.2677 20.5412H14.2593L14.2423 20.5666C13.9286 20.8548 13.7676 21.2787 13.776 21.7619C13.793 22.4062 14.1151 23.0505 14.6323 23.4829C15.5563 24.2543 17.0653 24.0933 17.8707 23.1353C17.8707 23.1353 17.9046 23.0929 17.9301 23.059C18.4641 22.4571 21.9399 18.3539 21.9399 13.3013C21.9399 13.1402 21.9399 12.9876 21.9315 12.8266C21.7873 9.62204 20.2529 6.6888 17.3536 4.11162" fill="#1D1D1B"/>
</svg>
