<?xml version="1.0" standalone="no"?>
<!DOCTYPE svg PUBLIC "-//W3C//DTD SVG 20010904//EN"
 "http://www.w3.org/TR/2001/REC-SVG-20010904/DTD/svg10.dtd">
<svg version="1.0" xmlns="http://www.w3.org/2000/svg"
 width="700.000000pt" height="700.000000pt" viewBox="0 0 700.000000 700.000000"
 preserveAspectRatio="xMidYMid meet">
<metadata>
Created by potrace 1.11, written by Peter Selinger 2001-2013
</metadata>
<g transform="translate(0.000000,700.000000) scale(0.100000,-0.100000)"
fill="#000000" stroke="none">
<path d="M3340 6714 c-456 -27 -873 -137 -1270 -336 -329 -164 -550 -321 -813
-578 -437 -424 -729 -931 -876 -1519 -132 -526 -129 -1066 10 -1600 226 -874
838 -1633 1649 -2046 994 -505 2183 -461 3128 117 1214 742 1797 2169 1447
3543 -181 714 -605 1344 -1205 1793 -363 271 -823 474 -1281 566 -225 45 -580
72 -789 60z"/>
</g>
</svg>
