<svg width="73" height="40" viewBox="0 0 73 40" fill="none" xmlns="http://www.w3.org/2000/svg">
<path d="M0 17.7308C0 17.5838 0.119428 17.446 0.284793 17.446H3.77584C5.60404 17.446 7.11071 18.9343 7.11071 20.735C7.11071 22.5356 5.61323 24.079 3.79421 24.079H1.93845V27.5701C1.93845 27.7171 1.80065 27.8549 1.65365 27.8549H0.284793C0.119428 27.8549 0 27.7171 0 27.5701V17.7217V17.7308ZM3.6564 22.2692C4.49242 22.2692 5.19062 21.5985 5.19062 20.7258C5.19062 19.9081 4.49242 19.2834 3.6564 19.2834H1.92926V22.2692H3.6564Z" fill="#1D1D1B"/>
<path d="M16.362 17.2991C19.3385 17.2991 21.718 19.6969 21.718 22.6643C21.718 25.6317 19.3385 28.0019 16.362 28.0019C13.3854 28.0019 11.0243 25.6409 11.0243 22.6643C11.0243 19.6877 13.3854 17.2991 16.362 17.2991ZM16.362 26.0727C18.2361 26.0727 19.7795 24.5385 19.7795 22.6643C19.7795 20.7902 18.2361 19.2284 16.362 19.2284C14.4878 19.2284 12.9536 20.7902 12.9536 22.6643C12.9536 24.5385 14.4878 26.0727 16.362 26.0727Z" fill="#1D1D1B"/>
<path d="M26.633 17.7308C26.633 17.5838 26.7524 17.446 26.8994 17.446H30.4272C33.2935 17.446 35.6454 19.7795 35.6454 22.6367C35.6454 25.4938 33.2935 27.8549 30.4272 27.8549H26.8994C26.7524 27.8549 26.633 27.7171 26.633 27.5701V17.7217V17.7308ZM30.2435 26.045C32.1727 26.045 33.5875 24.5843 33.5875 22.6367C33.5875 20.689 32.1727 19.2467 30.2435 19.2467H28.5439V26.045H30.2435Z" fill="#1D1D1B"/>
<path d="M40.5788 17.7308C40.5788 17.5838 40.7166 17.446 40.8636 17.446H42.2508C42.3978 17.446 42.5356 17.5838 42.5356 17.7308V27.5793C42.5356 27.7262 42.3978 27.8641 42.2508 27.8641H40.8636C40.7166 27.8641 40.5788 27.7262 40.5788 27.5793V17.7308Z" fill="#1D1D1B"/>
<path d="M48.057 17.7308C48.057 17.5838 48.1948 17.446 48.3418 17.446H49.7565C49.9219 17.446 50.0413 17.5838 50.0413 17.7308V23.8126C50.0413 25.0804 50.9049 26.0726 52.2003 26.0726C53.4956 26.0726 54.3684 25.0804 54.3684 23.831V17.7308C54.3684 17.5838 54.4878 17.446 54.6532 17.446H56.068C56.215 17.446 56.3528 17.5838 56.3528 17.7308V23.9137C56.3528 26.1737 54.5521 28.0019 52.2003 28.0019C49.8484 28.0019 48.0661 26.1737 48.0661 23.9137V17.7308H48.057Z" fill="#1D1D1B"/>
<path d="M62.9582 17.5196C62.9766 17.4002 63.0593 17.2991 63.2246 17.2991H63.4635C63.5829 17.2991 63.6748 17.3543 63.7207 17.4461L66.9913 24.465H67.0372L70.3078 17.4461C70.3537 17.3543 70.4272 17.2991 70.565 17.2991H70.8039C70.9692 17.2991 71.0611 17.4002 71.0703 17.5196L72.825 27.515C72.8709 27.7263 72.7515 27.8549 72.5586 27.8549H71.2081C71.0703 27.8549 70.9508 27.7355 70.9233 27.6345L70.0505 22.0029H70.0046L67.4047 27.8458C67.3771 27.9376 67.2853 28.0111 67.1474 28.0111H66.881C66.7432 28.0111 66.6697 27.9376 66.6238 27.8458L63.9963 22.0029H63.9504L63.0868 27.6345C63.0684 27.7355 62.949 27.8549 62.8204 27.8549H61.4791C61.2862 27.8549 61.1667 27.7171 61.1943 27.515L62.9674 17.5196H62.9582Z" fill="#1D1D1B"/>
<path d="M15.3881 34.8277C15.3881 34.7543 15.4525 34.6808 15.5259 34.6808H17.2898C18.2085 34.6808 18.9711 35.4341 18.9711 36.3344C18.9711 37.2347 18.2177 38.0156 17.299 38.0156H16.362V39.7795C16.362 39.853 16.2977 39.9265 16.2242 39.9265H15.5351C15.4525 39.9265 15.3973 39.8622 15.3973 39.7795V34.8186L15.3881 34.8277ZM17.2347 37.1153C17.6573 37.1153 18.0064 36.7754 18.0064 36.3344C18.0064 35.921 17.6573 35.6086 17.2347 35.6086H16.362V37.1153H17.2347Z" fill="#1D1D1B"/>
<path d="M23.6288 34.6072C25.1263 34.6072 26.3298 35.8107 26.3298 37.3081C26.3298 38.8056 25.1355 39.9999 23.6288 39.9999C22.1222 39.9999 20.9371 38.8056 20.9371 37.3081C20.9371 35.8107 22.1314 34.6072 23.6288 34.6072ZM23.6288 39.0261C24.5751 39.0261 25.356 38.2544 25.356 37.3081C25.356 36.3619 24.5751 35.581 23.6288 35.581C22.6826 35.581 21.9109 36.3711 21.9109 37.3081C21.9109 38.2452 22.6826 39.0261 23.6288 39.0261Z" fill="#1D1D1B"/>
<path d="M28.8011 34.8277C28.8011 34.7543 28.8654 34.6808 28.9389 34.6808H30.712C32.1543 34.6808 33.3395 35.8567 33.3395 37.299C33.3395 38.7414 32.1543 39.9265 30.712 39.9265H28.9389C28.8654 39.9265 28.8011 39.8622 28.8011 39.7795V34.8186V34.8277ZM30.6201 39.017C31.5939 39.017 32.3013 38.282 32.3013 37.299C32.3013 36.316 31.5939 35.5903 30.6201 35.5903H29.7657V39.017H30.6201Z" fill="#1D1D1B"/>
<path d="M38.1442 34.6072C38.8976 34.6072 39.4488 34.846 39.9541 35.3054C40.0184 35.3697 40.0184 35.4524 39.9541 35.5167L39.4947 35.9852C39.4396 36.0495 39.3661 36.0495 39.311 35.9852C38.9986 35.7096 38.576 35.5442 38.1534 35.5442C37.198 35.5442 36.4814 36.3435 36.4814 37.2898C36.4814 38.236 37.198 39.0169 38.1626 39.0169C38.6128 39.0169 38.9986 38.8424 39.311 38.5943C39.3753 38.5392 39.4488 38.5484 39.4947 38.5943L39.9633 39.072C40.0276 39.1272 40.0092 39.219 39.9633 39.2742C39.458 39.7702 38.8057 39.9999 38.1442 39.9999C36.6468 39.9999 35.4433 38.8056 35.4433 37.3081C35.4433 35.8107 36.6468 34.6072 38.1442 34.6072Z" fill="#1D1D1B"/>
<path d="M41.7639 39.7335L44.0974 34.6899C44.0974 34.6899 44.1617 34.6072 44.226 34.6072H44.2995C44.373 34.6072 44.4006 34.6439 44.4281 34.6899L46.734 39.7335C46.78 39.8346 46.7157 39.9264 46.6054 39.9264H45.9531C45.8429 39.9264 45.7878 39.8805 45.7327 39.7794L45.3652 38.971H43.1236L42.7561 39.7794C42.7285 39.8529 42.655 39.9264 42.5356 39.9264H41.8833C41.7731 39.9264 41.7088 39.8254 41.7547 39.7335H41.7639ZM44.9977 38.135L44.2444 36.4905H44.226L43.491 38.135H44.9977Z" fill="#1D1D1B"/>
<path d="M48.599 39.2007L48.8654 38.7321C48.9297 38.6311 49.0492 38.6311 49.1226 38.677C49.1594 38.6954 49.7657 39.1455 50.2526 39.1455C50.6385 39.1455 50.9325 38.8883 50.9325 38.5668C50.9325 38.1809 50.6109 37.9237 49.977 37.6664C49.2696 37.3816 48.5714 36.9315 48.5714 36.0495C48.5714 35.3789 49.0675 34.6072 50.2526 34.6072C51.0152 34.6072 51.6031 34.993 51.7501 35.1125C51.8236 35.1584 51.8512 35.287 51.7961 35.3605L51.5112 35.7831C51.4469 35.875 51.3367 35.9301 51.2448 35.875C51.1805 35.8382 50.6109 35.4616 50.2067 35.4616C49.8025 35.4616 49.5452 35.7464 49.5452 35.9852C49.5452 36.3343 49.8209 36.5732 50.4272 36.8212C51.153 37.1152 51.989 37.547 51.989 38.5116C51.989 39.2833 51.3183 39.9907 50.2618 39.9907C49.3156 39.9907 48.7644 39.5498 48.6174 39.4028C48.5531 39.3385 48.5163 39.3017 48.5806 39.1823L48.599 39.2007Z" fill="#1D1D1B"/>
<path d="M55.1677 35.5903H54.0193C53.9366 35.5903 53.8815 35.526 53.8815 35.4433V34.8277C53.8815 34.7543 53.9458 34.6808 54.0193 34.6808H57.2899C57.3725 34.6808 57.4276 34.7451 57.4276 34.8277V35.4433C57.4276 35.5168 57.3633 35.5903 57.2899 35.5903H56.1415V39.7887C56.1415 39.8622 56.0772 39.9357 56.0037 39.9357H55.3055C55.232 39.9357 55.1585 39.8714 55.1585 39.7887V35.5903H55.1677Z" fill="#1D1D1B"/>
<path d="M41.7915 10.5558H34.2949L28.4244 7.07391H35.6178L41.7915 10.5558Z" fill="#1D1D1B"/>
<path d="M33.0547 0L39.2467 4.226L42.1497 10.4088L36.1966 6.35737L33.0547 0Z" fill="#1D1D1B"/>
</svg>
