<?xml version="1.0" standalone="no"?>
<!DOCTYPE svg PUBLIC "-//W3C//DTD SVG 20010904//EN"
 "http://www.w3.org/TR/2001/REC-SVG-20010904/DTD/svg10.dtd">
<svg version="1.0" xmlns="http://www.w3.org/2000/svg"
 width="801.000000pt" height="801.000000pt" viewBox="0 0 801.000000 801.000000"
 preserveAspectRatio="xMidYMid meet">
<metadata>
Created by potrace 1.11, written by Peter Selinger 2001-2013
</metadata>
<g transform="translate(0.000000,801.000000) scale(0.100000,-0.100000)"
fill="#000000" stroke="none">
<path d="M1352 4173 l3 -1587 37 -1 c20 -1 41 1 46 4 5 3 8 688 8 1589 l-1
1582 -47 0 -48 0 2 -1587z"/>
<path d="M2009 5758 c-4 -8 -5 -3154 -1 -3164 3 -9 45 -12 84 -5 4 0 6 713 5
1584 l-2 1582 -42 3 c-24 2 -44 2 -44 0z"/>
<path d="M2659 5738 c-1 -29 -1 -3118 0 -3138 1 -11 13 -15 46 -16 l45 0 0
1588 0 1588 -45 0 c-40 0 -45 -3 -46 -22z"/>
<path d="M3313 4173 l2 -1587 35 -2 c19 0 40 3 45 7 7 5 9 540 8 1576 -1 862
-2 1574 -2 1581 -1 8 -17 12 -46 12 l-45 0 3 -1587z"/>
<path d="M3967 5753 c-3 -7 -2 -3148 2 -3164 1 -5 59 -5 81 0 3 0 5 714 5
1586 l0 1585 -42 0 c-23 0 -44 -3 -46 -7z"/>
<path d="M4619 5743 c-5 -118 0 -3145 5 -3150 4 -5 25 -8 47 -9 l39 -1 0 1589
0 1588 -45 0 c-36 0 -45 -4 -46 -17z"/>
<path d="M5270 4172 l0 -1589 45 0 c39 0 45 3 46 21 0 12 1 725 2 1586 l0
1565 -46 3 -47 3 0 -1589z"/>
<path d="M5923 4173 l2 -1588 42 -1 c23 0 44 4 46 10 3 10 1 3140 -2 3159 0 4
-21 7 -45 7 l-44 0 1 -1587z"/>
<path d="M6577 5753 c-2 -5 -3 -719 -3 -1588 l1 -1579 35 -1 c19 -1 41 0 48 3
9 3 12 330 12 1588 l0 1584 -44 0 c-25 0 -47 -3 -49 -7z"/>
</g>
</svg>
